<?xml version="1.0" standalone="no"?>
<!DOCTYPE svg PUBLIC "-//W3C//DTD SVG 20010904//EN"
 "http://www.w3.org/TR/2001/REC-SVG-20010904/DTD/svg10.dtd">
<svg version="1.0" xmlns="http://www.w3.org/2000/svg"
 width="700.000000pt" height="700.000000pt" viewBox="0 0 700.000000 700.000000"
 preserveAspectRatio="xMidYMid meet">
<metadata>
Created by potrace 1.14, written by Peter Selinger 2001-2017
</metadata>
<g transform="translate(0.000000,700.000000) scale(0.100000,-0.100000)"
fill="#000000" stroke="none">
<path d="M5808 5088 c-48 -37 -1468 -1574 -1468 -1588 0 -10 6 -22 13 -28 6
-6 190 -77 407 -158 217 -81 397 -149 399 -151 2 -1 -42 -233 -98 -514 -106
-530 -107 -539 -61 -539 19 0 1470 1550 1484 1586 6 15 6 28 0 34 -5 5 -189
77 -407 159 -219 82 -401 152 -404 155 -5 4 166 885 193 1002 3 12 -2 28 -11
38 -20 19 -26 20 -47 4z"/>
<path d="M745 4744 c-76 -19 -133 -52 -182 -108 -46 -52 -63 -101 -63 -177 0
-68 26 -124 75 -168 50 -43 94 -63 230 -100 139 -37 165 -47 193 -73 24 -23
30 -75 12 -109 -28 -51 -166 -78 -243 -45 -42 17 -87 70 -87 102 0 24 -1 24
-105 24 l-106 0 6 -37 c21 -121 73 -195 169 -239 168 -77 407 -50 515 57 79
78 98 212 44 310 -49 90 -127 133 -341 184 -85 20 -132 49 -145 89 -14 41 13
93 58 112 44 18 126 18 169 0 37 -16 76 -60 76 -87 0 -17 9 -19 100 -19 l100
0 -1 33 c-4 184 -237 308 -474 251z"/>
<path d="M2165 4738 c-3 -7 -4 -224 -3 -483 l3 -470 103 -3 102 -3 0 486 0
485 -100 0 c-71 0 -102 -4 -105 -12z"/>
<path d="M1611 4509 c-112 -19 -210 -99 -253 -208 -18 -45 -22 -76 -22 -161
-1 -97 2 -110 30 -171 59 -125 155 -189 295 -197 165 -10 282 57 348 198 24
50 26 66 25 175 0 100 -3 127 -21 165 -42 90 -110 156 -189 184 -55 19 -150
25 -213 15z m149 -178 c46 -34 64 -78 68 -173 4 -79 2 -93 -22 -142 -56 -114
-181 -114 -240 -1 -30 58 -29 202 1 261 25 47 41 62 80 74 37 12 82 4 113 -19z"/>
<path d="M2740 4507 c-103 -24 -178 -79 -209 -155 -20 -47 -9 -62 42 -62 24 0
65 -3 91 -6 38 -6 46 -4 46 9 0 8 14 27 31 41 25 21 41 26 85 26 66 0 104 -29
104 -80 0 -39 -33 -54 -135 -65 -134 -13 -207 -39 -257 -92 -35 -37 -48 -73
-48 -136 1 -140 113 -229 270 -214 65 6 113 27 152 70 l28 29 0 -46 0 -47 98
3 97 3 3 245 c4 303 -1 334 -68 401 -34 34 -63 52 -100 63 -75 22 -166 27
-230 13z m190 -448 c0 -90 -49 -140 -139 -141 -59 0 -89 14 -97 46 -16 66 28
110 124 122 31 4 66 10 77 15 33 13 35 11 35 -42z"/>
<path d="M3608 4510 c-45 -14 -85 -48 -107 -92 l-21 -43 0 68 0 68 -97 -3 -98
-3 0 -360 0 -360 103 -3 102 -3 0 223 c0 260 5 278 80 316 38 19 54 21 103 16
l57 -7 0 90 0 91 -31 6 c-38 7 -56 7 -91 -4z"/>
<path d="M1600 3476 c-83 -18 -144 -52 -195 -108 -49 -55 -65 -97 -65 -176 0
-95 49 -170 143 -219 27 -13 101 -38 165 -55 175 -45 212 -69 212 -135 0 -65
-61 -103 -164 -103 -106 0 -152 31 -180 123 -5 15 -19 17 -107 17 l-101 0 6
-47 c16 -115 97 -210 210 -248 69 -23 210 -31 288 -15 167 32 257 128 258 273
0 81 -18 128 -68 180 -51 53 -110 81 -246 116 -129 34 -168 51 -190 83 -47 67
25 148 132 148 83 0 145 -36 157 -91 l7 -29 100 0 101 0 -6 45 c-9 59 -36 112
-84 156 -49 48 -89 67 -171 85 -80 16 -128 17 -202 0z"/>
<path d="M2367 3223 c-62 -21 -129 -81 -156 -138 -11 -24 -21 -49 -21 -53 0
-5 41 -12 90 -15 l91 -7 38 40 c35 37 42 40 90 40 45 0 57 -4 82 -29 62 -63
30 -101 -96 -115 -170 -19 -251 -53 -291 -121 -19 -33 -24 -56 -24 -111 0 -88
26 -136 94 -179 46 -28 57 -30 140 -30 101 0 137 13 188 68 l28 31 0 -47 0
-47 95 0 96 0 -3 289 -3 289 -30 44 c-21 28 -50 53 -89 73 -53 27 -70 30 -165
32 -78 2 -119 -2 -154 -14z m238 -479 c-8 -43 -62 -90 -113 -99 -82 -13 -148
42 -123 102 16 40 41 52 139 69 48 9 89 18 92 21 8 8 12 -58 5 -93z"/>
<path d="M2967 3234 c-4 -4 -7 -169 -7 -366 l0 -358 105 0 105 0 0 246 0 246
34 34 c43 43 100 47 143 10 l28 -24 5 -254 5 -253 98 -3 97 -3 0 213 c1 246 7
293 45 325 40 35 108 32 146 -6 l29 -29 0 -251 0 -251 106 0 105 0 -3 283 c-3
281 -3 283 -29 332 -15 30 -42 62 -68 80 -37 26 -53 30 -120 33 -68 4 -84 1
-129 -22 -31 -16 -61 -41 -75 -61 -25 -40 -33 -43 -42 -16 -10 32 -81 89 -120
97 -20 3 -62 4 -94 2 -66 -5 -118 -36 -151 -91 l-19 -30 -3 59 -3 59 -90 3
c-50 1 -94 0 -98 -4z"/>
</g>
</svg>
