<svg width="512" height="512" viewBox="0 0 512 512" fill="none" xmlns="http://www.w3.org/2000/svg">
<rect width="512" height="512" fill="#F9FAFB"/>
<path d="M74.9901 185.261C74.7173 182.511 73.5469 180.375 71.4787 178.852C69.4105 177.33 66.6037 176.568 63.0582 176.568C60.6491 176.568 58.6151 176.909 56.956 177.591C55.2969 178.25 54.0241 179.17 53.1378 180.352C52.2741 181.534 51.8423 182.875 51.8423 184.375C51.7969 185.625 52.0582 186.716 52.6264 187.648C53.2173 188.58 54.0241 189.386 55.0469 190.068C56.0696 190.727 57.2514 191.307 58.5923 191.807C59.9332 192.284 61.3651 192.693 62.8878 193.034L69.1605 194.534C72.206 195.216 75.0014 196.125 77.5469 197.261C80.0923 198.398 82.2969 199.795 84.1605 201.455C86.0241 203.114 87.4673 205.068 88.4901 207.318C89.5355 209.568 90.0696 212.148 90.0923 215.057C90.0696 219.33 88.9787 223.034 86.8196 226.17C84.6832 229.284 81.5923 231.705 77.5469 233.432C73.5241 235.136 68.6719 235.989 62.9901 235.989C57.3537 235.989 52.4446 235.125 48.2628 233.398C44.1037 231.67 40.8537 229.114 38.5128 225.727C36.1946 222.318 34.9787 218.102 34.8651 213.08H49.1491C49.3082 215.42 49.9787 217.375 51.1605 218.943C52.3651 220.489 53.9673 221.659 55.9673 222.455C57.9901 223.227 60.2741 223.614 62.8196 223.614C65.3196 223.614 67.4901 223.25 69.331 222.523C71.1946 221.795 72.6378 220.784 73.6605 219.489C74.6832 218.193 75.1946 216.705 75.1946 215.023C75.1946 213.455 74.7287 212.136 73.7969 211.068C72.8878 210 71.5469 209.091 69.7741 208.341C68.0241 207.591 65.8764 206.909 63.331 206.295L55.7287 204.386C49.8423 202.955 45.1946 200.716 41.7855 197.67C38.3764 194.625 36.6832 190.523 36.706 185.364C36.6832 181.136 37.8082 177.443 40.081 174.284C42.3764 171.125 45.5241 168.659 49.5241 166.886C53.5241 165.114 58.0696 164.227 63.1605 164.227C68.3423 164.227 72.8651 165.114 76.7287 166.886C80.6151 168.659 83.6378 171.125 85.7969 174.284C87.956 177.443 89.0696 181.102 89.1378 185.261H74.9901ZM123.408 236.023C118.112 236.023 113.533 234.898 109.669 232.648C105.828 230.375 102.862 227.216 100.771 223.17C98.6804 219.102 97.6349 214.386 97.6349 209.023C97.6349 203.614 98.6804 198.886 100.771 194.841C102.862 190.773 105.828 187.614 109.669 185.364C113.533 183.091 118.112 181.955 123.408 181.955C128.703 181.955 133.271 183.091 137.112 185.364C140.976 187.614 143.953 190.773 146.044 194.841C148.135 198.886 149.18 203.614 149.18 209.023C149.18 214.386 148.135 219.102 146.044 223.17C143.953 227.216 140.976 230.375 137.112 232.648C133.271 234.898 128.703 236.023 123.408 236.023ZM123.476 224.773C125.885 224.773 127.896 224.091 129.51 222.727C131.124 221.341 132.339 219.455 133.158 217.068C133.999 214.682 134.419 211.966 134.419 208.92C134.419 205.875 133.999 203.159 133.158 200.773C132.339 198.386 131.124 196.5 129.51 195.114C127.896 193.727 125.885 193.034 123.476 193.034C121.044 193.034 118.999 193.727 117.339 195.114C115.703 196.5 114.464 198.386 113.624 200.773C112.805 203.159 112.396 205.875 112.396 208.92C112.396 211.966 112.805 214.682 113.624 217.068C114.464 219.455 115.703 221.341 117.339 222.727C118.999 224.091 121.044 224.773 123.476 224.773ZM173.146 165.182V235H158.624V165.182H173.146ZM199.712 235.989C196.371 235.989 193.393 235.409 190.78 234.25C188.166 233.068 186.098 231.33 184.575 229.034C183.075 226.716 182.325 223.83 182.325 220.375C182.325 217.466 182.859 215.023 183.928 213.045C184.996 211.068 186.45 209.477 188.291 208.273C190.132 207.068 192.223 206.159 194.564 205.545C196.928 204.932 199.405 204.5 201.996 204.25C205.041 203.932 207.496 203.636 209.359 203.364C211.223 203.068 212.575 202.636 213.416 202.068C214.257 201.5 214.678 200.659 214.678 199.545V199.341C214.678 197.182 213.996 195.511 212.632 194.33C211.291 193.148 209.382 192.557 206.905 192.557C204.291 192.557 202.212 193.136 200.666 194.295C199.121 195.432 198.098 196.864 197.598 198.591L184.166 197.5C184.848 194.318 186.189 191.568 188.189 189.25C190.189 186.909 192.768 185.114 195.928 183.864C199.109 182.591 202.791 181.955 206.973 181.955C209.882 181.955 212.666 182.295 215.325 182.977C218.007 183.659 220.382 184.716 222.45 186.148C224.541 187.58 226.189 189.42 227.393 191.67C228.598 193.898 229.2 196.568 229.2 199.682V235H215.428V227.739H215.018C214.178 229.375 213.053 230.818 211.643 232.068C210.234 233.295 208.541 234.261 206.564 234.966C204.587 235.648 202.303 235.989 199.712 235.989ZM203.871 225.966C206.007 225.966 207.893 225.545 209.53 224.705C211.166 223.841 212.45 222.682 213.382 221.227C214.314 219.773 214.78 218.125 214.78 216.284V210.727C214.325 211.023 213.7 211.295 212.905 211.545C212.132 211.773 211.257 211.989 210.28 212.193C209.303 212.375 208.325 212.545 207.348 212.705C206.371 212.841 205.484 212.966 204.689 213.08C202.984 213.33 201.496 213.727 200.223 214.273C198.95 214.818 197.962 215.557 197.257 216.489C196.553 217.398 196.2 218.534 196.2 219.898C196.2 221.875 196.916 223.386 198.348 224.432C199.803 225.455 201.643 225.966 203.871 225.966ZM240.467 235V182.636H254.547V191.773H255.092C256.047 188.523 257.649 186.068 259.899 184.409C262.149 182.727 264.74 181.886 267.672 181.886C268.399 181.886 269.183 181.932 270.024 182.023C270.865 182.114 271.604 182.239 272.24 182.398V195.284C271.558 195.08 270.615 194.898 269.411 194.739C268.206 194.58 267.104 194.5 266.104 194.5C263.967 194.5 262.058 194.966 260.376 195.898C258.717 196.807 257.399 198.08 256.422 199.716C255.467 201.352 254.99 203.239 254.99 205.375V235H240.467Z" fill="black"/>
<path d="M136.365 278.261C136.092 275.511 134.922 273.375 132.854 271.852C130.786 270.33 127.979 269.568 124.433 269.568C122.024 269.568 119.99 269.909 118.331 270.591C116.672 271.25 115.399 272.17 114.513 273.352C113.649 274.534 113.217 275.875 113.217 277.375C113.172 278.625 113.433 279.716 114.001 280.648C114.592 281.58 115.399 282.386 116.422 283.068C117.445 283.727 118.626 284.307 119.967 284.807C121.308 285.284 122.74 285.693 124.263 286.034L130.536 287.534C133.581 288.216 136.376 289.125 138.922 290.261C141.467 291.398 143.672 292.795 145.536 294.455C147.399 296.114 148.842 298.068 149.865 300.318C150.911 302.568 151.445 305.148 151.467 308.057C151.445 312.33 150.354 316.034 148.195 319.17C146.058 322.284 142.967 324.705 138.922 326.432C134.899 328.136 130.047 328.989 124.365 328.989C118.729 328.989 113.82 328.125 109.638 326.398C105.479 324.67 102.229 322.114 99.8878 318.727C97.5696 315.318 96.3537 311.102 96.2401 306.08H110.524C110.683 308.42 111.354 310.375 112.536 311.943C113.74 313.489 115.342 314.659 117.342 315.455C119.365 316.227 121.649 316.614 124.195 316.614C126.695 316.614 128.865 316.25 130.706 315.523C132.57 314.795 134.013 313.784 135.036 312.489C136.058 311.193 136.57 309.705 136.57 308.023C136.57 306.455 136.104 305.136 135.172 304.068C134.263 303 132.922 302.091 131.149 301.341C129.399 300.591 127.251 299.909 124.706 299.295L117.104 297.386C111.217 295.955 106.57 293.716 103.161 290.67C99.7514 287.625 98.0582 283.523 98.081 278.364C98.0582 274.136 99.1832 270.443 101.456 267.284C103.751 264.125 106.899 261.659 110.899 259.886C114.899 258.114 119.445 257.227 124.536 257.227C129.717 257.227 134.24 258.114 138.104 259.886C141.99 261.659 145.013 264.125 147.172 267.284C149.331 270.443 150.445 274.102 150.513 278.261H136.365ZM176.055 328.989C172.714 328.989 169.737 328.409 167.124 327.25C164.51 326.068 162.442 324.33 160.919 322.034C159.419 319.716 158.669 316.83 158.669 313.375C158.669 310.466 159.203 308.023 160.271 306.045C161.339 304.068 162.794 302.477 164.635 301.273C166.476 300.068 168.567 299.159 170.908 298.545C173.271 297.932 175.749 297.5 178.339 297.25C181.385 296.932 183.839 296.636 185.703 296.364C187.567 296.068 188.919 295.636 189.76 295.068C190.601 294.5 191.021 293.659 191.021 292.545V292.341C191.021 290.182 190.339 288.511 188.976 287.33C187.635 286.148 185.726 285.557 183.249 285.557C180.635 285.557 178.555 286.136 177.01 287.295C175.464 288.432 174.442 289.864 173.942 291.591L160.51 290.5C161.192 287.318 162.533 284.568 164.533 282.25C166.533 279.909 169.112 278.114 172.271 276.864C175.453 275.591 179.135 274.955 183.317 274.955C186.226 274.955 189.01 275.295 191.669 275.977C194.351 276.659 196.726 277.716 198.794 279.148C200.885 280.58 202.533 282.42 203.737 284.67C204.942 286.898 205.544 289.568 205.544 292.682V328H191.771V320.739H191.362C190.521 322.375 189.396 323.818 187.987 325.068C186.578 326.295 184.885 327.261 182.908 327.966C180.93 328.648 178.646 328.989 176.055 328.989ZM180.214 318.966C182.351 318.966 184.237 318.545 185.874 317.705C187.51 316.841 188.794 315.682 189.726 314.227C190.658 312.773 191.124 311.125 191.124 309.284V303.727C190.669 304.023 190.044 304.295 189.249 304.545C188.476 304.773 187.601 304.989 186.624 305.193C185.646 305.375 184.669 305.545 183.692 305.705C182.714 305.841 181.828 305.966 181.033 306.08C179.328 306.33 177.839 306.727 176.567 307.273C175.294 307.818 174.305 308.557 173.601 309.489C172.896 310.398 172.544 311.534 172.544 312.898C172.544 314.875 173.26 316.386 174.692 317.432C176.146 318.455 177.987 318.966 180.214 318.966ZM216.811 328V275.636H230.652V284.875H231.266C232.357 281.807 234.175 279.386 236.72 277.614C239.266 275.841 242.311 274.955 245.857 274.955C249.447 274.955 252.504 275.852 255.027 277.648C257.55 279.42 259.232 281.83 260.072 284.875H260.618C261.686 281.875 263.618 279.477 266.413 277.682C269.232 275.864 272.561 274.955 276.402 274.955C281.288 274.955 285.254 276.511 288.3 279.625C291.368 282.716 292.902 287.102 292.902 292.784V328H278.413V295.648C278.413 292.739 277.641 290.557 276.095 289.102C274.55 287.648 272.618 286.92 270.3 286.92C267.663 286.92 265.607 287.761 264.129 289.443C262.652 291.102 261.913 293.295 261.913 296.023V328H247.834V295.341C247.834 292.773 247.095 290.727 245.618 289.205C244.163 287.682 242.243 286.92 239.857 286.92C238.243 286.92 236.788 287.33 235.493 288.148C234.22 288.943 233.209 290.068 232.459 291.523C231.709 292.955 231.334 294.636 231.334 296.568V328H216.811Z" fill="black"/>
<path d="M365.6 355L380.8 278.929L320 256.107L426.4 142L411.2 218.071L472 240.893L365.6 355Z" fill="#F2C94C" stroke="black" stroke-width="5" stroke-linecap="round" stroke-linejoin="round"/>
</svg>
